HIERARCHY
ROOT Hips
{
	OFFSET 0.000000 0.000000 0.000000
	CHANNELS 6 Xposition Yposition Zposition Zrotation Yrotation Xrotation 
	JOINT LHipJoint
	{
		OFFSET 0.000000 0.000000 0.000000
		CHANNELS 3 Zrotation Yrotation Xrotation
		JOINT LeftUpLeg
		{
			OFFSET 1.363060 -1.794630 0.839290
			CHANNELS 3 Zrotation Yrotation Xrotation
			JOINT LeftLeg
			{
				OFFSET 2.448110 -6.726130 0.000000
				CHANNELS 3 Zrotation Yrotation Xrotation
				JOINT LeftFoot
				{
					OFFSET 2.562200 -7.039590 0.000000
					CHANNELS 3 Zrotation Yrotation Xrotation
					JOINT LeftToeBase
					{
						OFFSET 0.157640 -0.433110 2.322550
						CHANNELS 3 Zrotation Yrotation Xrotation
						End Site
						{
							OFFSET 0.000000 0.000000 0.000000
						}
					}
				}
			}
		}
	}
	JOINT RHipJoint
	{
		OFFSET 0.000000 0.000000 0.000000
		CHANNELS 3 Zrotation Yrotation Xrotation
		JOINT RightUpLeg
		{
			OFFSET -1.305520 -1.794630 0.839290
			CHANNELS 3 Zrotation Yrotation Xrotation
			JOINT RightLeg
			{
				OFFSET -2.542530 -6.985550 0.000000
				CHANNELS 3 Zrotation Yrotation Xrotation
				JOINT RightFoot
				{
					OFFSET -2.568260 -7.056230 0.000000
					CHANNELS 3 Zrotation Yrotation Xrotation
					JOINT RightToeBase
					{
						OFFSET -0.164730 -0.452590 2.363150
						CHANNELS 3 Zrotation Yrotation Xrotation
						End Site
						{
							OFFSET 0.000000 0.000000 0.000000
						}
					}
				}
			}
		}
	}
	JOINT LowerBack
	{
		OFFSET 0.000000 0.000000 0.000000
		CHANNELS 3 Zrotation Yrotation Xrotation
		JOINT Spine
		{
			OFFSET 0.028270 2.035590 -0.193380
			CHANNELS 3 Zrotation Yrotation Xrotation
			JOINT Spine1
			{
				OFFSET 0.056720 2.048850 -0.042750
				CHANNELS 3 Zrotation Yrotation Xrotation
				JOINT Neck
				{
					OFFSET 0.000000 0.000000 0.000000
					CHANNELS 3 Zrotation Yrotation Xrotation
					JOINT Neck1
					{
						OFFSET -0.054170 1.746240 0.172020
						CHANNELS 3 Zrotation Yrotation Xrotation
						JOINT Head
						{
							OFFSET 0.104070 1.761360 -0.123970
							CHANNELS 3 Zrotation Yrotation Xrotation
							End Site
							{
								OFFSET 0.000000 0.000000 0.000000
							}
						}
					}
				}
				JOINT LeftShoulder
				{
					OFFSET 0.000000 0.000000 0.000000
					CHANNELS 3 Zrotation Yrotation Xrotation
					JOINT LeftArm
					{
						OFFSET 3.362410 1.200890 -0.311210
						CHANNELS 3 Zrotation Yrotation Xrotation
						JOINT LeftForeArm
						{
							OFFSET 4.983000 -0.000000 -0.000000
							CHANNELS 3 Zrotation Yrotation Xrotation
							JOINT LeftHand
							{
								OFFSET 3.483560 -0.000000 -0.000000
								CHANNELS 3 Zrotation Yrotation Xrotation
								JOINT LeftFingerBase
								{
									OFFSET 0.000000 0.000000 0.000000
									CHANNELS 3 Zrotation Yrotation Xrotation
									JOINT LeftHandIndex1
									{
										OFFSET 0.715260 -0.000000 -0.000000
										CHANNELS 3 Zrotation Yrotation Xrotation
										End Site
										{
											OFFSET 0.000000 0.000000 0.000000
										}
									}
								}
								JOINT LThumb
								{
									OFFSET 0.000000 0.000000 0.000000
									CHANNELS 3 Zrotation Yrotation Xrotation
									End Site
									{
										OFFSET 0.000000 0.000000 0.000000
									}
								}
							}
						}
					}
				}
				JOINT RightShoulder
				{
					OFFSET 0.000000 0.000000 0.000000
					CHANNELS 3 Zrotation Yrotation Xrotation
					JOINT RightArm
					{
						OFFSET -3.136600 1.374050 -0.404650
						CHANNELS 3 Zrotation Yrotation Xrotation
						JOINT RightForeArm
						{
							OFFSET -5.241900 -0.000000 -0.000000
							CHANNELS 3 Zrotation Yrotation Xrotation
							JOINT RightHand
							{
								OFFSET -3.444170 -0.000000 -0.000000
								CHANNELS 3 Zrotation Yrotation Xrotation
								JOINT RightFingerBase
								{
									OFFSET 0.000000 0.000000 0.000000
									CHANNELS 3 Zrotation Yrotation Xrotation
									JOINT RightHandIndex1
									{
										OFFSET -0.622530 -0.000000 -0.000000
										CHANNELS 3 Zrotation Yrotation Xrotation
										End Site
										{
											OFFSET 0.000000 0.000000 0.000000
										}
									}
								}
								JOINT RThumb
								{
									OFFSET 0.000000 0.000000 0.000000
									CHANNELS 3 Zrotation Yrotation Xrotation
									End Site
									{
										OFFSET 0.000000 0.000000 0.000000
									}
								}
							}
						}
					}
				}
			}
		}
	}
}
MOTION
Frames: 6
Frame Time: 0.008333
0.208264 18.199119 0.927410 -4.310396 16.997963 16.896144 2.747810 5.291832 1.317528 -8.923958 -19.489103 -23.176168 -0.250936 5.695294 20.540473 0.300967 -0.157636 7.344772 1.119800 -6.722100 -18.894800 0.218035 -6.048769 2.958285 22.290804 7.418684 -24.168178 0.372988 -6.310635 22.032531 2.379335 -12.596041 -9.553871 -0.002700 0.333600 -0.916500 -4.676139 2.949398 2.750127 20.638413 6.591398 -11.890758 -1.406674 2.631660 -8.246544 -2.972063 2.774880 1.013779 -9.878896 -0.322037 -27.632876 -3.962900 0.342800 -8.476000 -12.117796 -4.252211 -0.958428 39.345089 -6.132381 -60.259193 26.198663 -38.682767 -7.588172 -1.762086 3.224481 1.509115 -16.347059 27.977650 -6.220200 -7.125000 0.000000 0.000000 -42.619300 49.907900 -6.158000 10.549528 3.891473 3.784108 -4.451061 -13.666397 7.120696 -98.118800 57.422719 -64.247738 1.337166 1.307675 -11.439915 30.590869 2.211721 0.582200 7.125000 0.000000 0.000000 38.887200 -26.165600 23.424200 
0.208667 18.204058 0.922572 -4.328592 16.913517 16.979526 2.742232 5.286490 1.306758 -8.878409 -19.567089 -23.188990 -0.258754 5.677824 20.479617 0.244002 0.067645 7.326009 1.177800 -6.888100 -19.384300 0.217113 -6.044983 2.955852 22.274002 7.525828 -24.206607 0.387426 -6.286841 21.950381 2.373497 -12.563403 -9.506744 -0.001000 0.204300 -0.561400 -4.646520 2.938916 2.859067 20.656145 6.575658 -11.913196 -1.425976 2.620057 -8.316108 -3.063652 2.780674 0.967114 -9.768247 -0.294200 -27.536217 -3.918400 0.345600 -8.440200 -12.109327 -4.246823 -0.956327 39.286971 -6.108418 -60.165612 26.221087 -38.708898 -7.601277 -1.763127 3.221950 1.397104 -16.309539 28.011542 -6.213300 -7.125000 0.000000 0.000000 -42.616500 49.938400 -6.194300 10.548678 3.888671 3.782473 -4.494247 -13.639895 7.152495 -98.242035 57.416273 -64.373317 1.339569 1.306256 -11.427071 30.621134 2.218474 0.587500 7.125000 0.000000 0.000000 38.897700 -26.152700 23.452300 
0.208163 18.207586 0.918136 -4.348765 16.806463 17.048340 2.737099 5.284988 1.304287 -8.840985 -19.607168 -23.192639 -0.274331 5.646305 20.377526 0.181796 0.314549 7.340900 1.235400 -7.048500 -19.859200 0.215843 -6.041324 2.957934 22.265220 7.628164 -24.262559 0.392989 -6.279590 21.914865 2.378566 -12.573144 -9.438375 -0.001400 0.239500 -0.657900 -4.652109 2.932249 2.912919 20.708943 6.558881 -11.855070 -1.425411 2.615131 -8.361544 -3.071613 2.757231 0.927260 -9.761735 -0.314588 -27.446931 -3.912400 0.332700 -8.410200 -12.112430 -4.236108 -0.974624 39.286877 -6.395050 -60.367687 26.137898 -38.623978 -7.557440 -1.725652 3.238456 1.654155 -16.085281 28.083679 -6.137300 -7.125000 0.000000 0.000000 -42.494100 50.017700 -6.265000 10.541329 3.889284 3.780169 -4.561390 -13.616247 7.177233 -98.316603 57.415776 -64.451397 1.343209 1.312713 -11.464673 30.714048 2.316814 0.641700 7.125000 0.000000 0.000000 38.905700 -26.052300 23.592700 
0.208365 18.211820 0.914507 -4.333115 16.677619 17.105483 2.723514 5.288748 1.307460 -8.843083 -19.640235 -23.151784 -0.292970 5.605278 20.259606 0.121822 0.547336 7.359190 1.274200 -7.154200 -20.172900 0.213173 -6.038496 2.961460 22.200550 7.752367 -24.298175 0.397431 -6.275801 21.887530 2.372744 -12.541627 -9.396077 -0.000300 0.110700 -0.304000 -4.674496 2.918707 2.945685 20.714580 6.527894 -11.789967 -1.404025 2.607583 -8.379673 -2.945345 2.741896 1.122255 -9.880737 -0.374355 -27.536572 -3.958600 0.316700 -8.467600 -12.125000 -4.236524 -0.997127 39.294544 -6.743166 -60.607384 26.087827 -38.572094 -7.530717 -1.697888 3.256884 2.070871 -16.076478 28.153963 -6.149700 -7.125000 0.000000 0.000000 -42.537100 50.068600 -6.335100 10.532955 3.890916 3.770884 -4.624472 -13.560770 7.218165 -98.293765 57.425147 -64.430485 1.340067 1.321013 -11.425915 30.693500 2.467336 0.720100 7.125000 0.000000 0.000000 38.846600 -25.930100 23.690600 
0.208567 18.215953 0.911886 -4.248972 16.545857 17.194992 2.707764 5.297895 1.315761 -8.909419 -19.696819 -23.102578 -0.312445 5.556352 20.135374 0.065562 0.754795 7.372213 1.288500 -7.192700 -20.287500 0.210207 -6.029180 2.967149 22.059482 7.852011 -24.389130 0.399527 -6.283818 21.873658 2.351439 -12.441850 -9.335828 -0.000500 -0.149100 0.409700 -4.795759 2.875269 2.915183 20.758781 6.449515 -11.632817 -1.330631 2.584810 -8.370417 -2.863734 2.757670 1.123109 -9.988452 -0.360128 -27.510667 -4.000900 0.330700 -8.456100 -12.133274 -4.240155 -0.986837 39.120894 -6.303015 -60.135471 26.301875 -38.794964 -7.645640 -1.741542 3.249015 1.627623 -16.255090 28.277160 -6.249200 -7.125000 0.000000 0.000000 -42.759200 50.137900 -6.465000 10.523269 3.909340 3.745757 -4.743081 -13.441712 7.211398 -98.221271 57.442642 -64.363843 1.334441 1.322650 -11.366975 30.600928 2.507599 0.738000 7.125000 0.000000 0.000000 38.792700 -25.914400 23.654000 
0.209675 18.220288 0.909265 -4.176086 16.415626 17.251585 2.693867 5.312312 1.330898 -8.979044 -19.764725 -23.029740 -0.329317 5.509536 20.022829 0.001146 0.988682 7.357566 1.290200 -7.197200 -20.300900 0.210666 -6.027882 2.980694 21.937796 7.917361 -24.458714 0.401257 -6.288634 21.853731 2.364738 -12.466192 -9.201960 -0.000000 -0.022200 0.061100 -4.909393 2.839195 2.858653 20.851051 6.372997 -11.390966 -1.279818 2.569515 -8.361326 -2.847790 2.756199 1.044892 -10.033877 -0.350237 -27.406505 -4.012800 0.336100 -8.406400 -12.150914 -4.231895 -1.019049 39.135097 -6.670238 -60.551862 26.198482 -38.676824 -7.582788 -1.704480 3.261418 2.301417 -16.210329 28.119514 -6.194100 -7.125000 0.000000 0.000000 -42.610100 50.027800 -6.300900 10.514554 3.913499 3.727677 -4.885994 -13.397966 7.195413 -98.252073 57.446483 -64.398436 1.332304 1.314629 -11.315394 30.522549 2.405608 0.682800 7.125000 0.000000 0.000000 38.791600 -26.013900 23.522700 
